<mxfile host="Electron" agent="Mozilla/5.0 (Macintosh; Intel Mac OS X 10_15_7) AppleWebKit/537.36 (KHTML, like Gecko) draw.io/26.0.4 Chrome/128.0.6613.186 Electron/32.2.5 Safari/537.36" version="26.0.4">
  <diagram name="Page-1" id="hhxOQRxLU100gcfkhkpX">
    <mxGraphModel dx="1114" dy="772" grid="1" gridSize="10" guides="1" tooltips="1" connect="1" arrows="1" fold="1" page="1" pageScale="1" pageWidth="850" pageHeight="1100" math="0" shadow="0">
      <root>
        <mxCell id="0" />
        <mxCell id="1" parent="0" />
        <mxCell id="MdCT3wbdab676pveuY5y-18" value="" style="rounded=0;whiteSpace=wrap;html=1;strokeColor=none;" vertex="1" parent="1">
          <mxGeometry width="730" height="260" as="geometry" />
        </mxCell>
        <mxCell id="MdCT3wbdab676pveuY5y-2" value="" style="shape=cylinder3;whiteSpace=wrap;html=1;boundedLbl=1;backgroundOutline=1;size=15;strokeWidth=2;" vertex="1" parent="1">
          <mxGeometry x="530" y="20" width="160" height="130" as="geometry" />
        </mxCell>
        <mxCell id="MdCT3wbdab676pveuY5y-3" value="" style="shape=image;verticalLabelPosition=bottom;labelBackgroundColor=default;verticalAlign=top;aspect=fixed;imageAspect=0;image=https://upload.wikimedia.org/wikipedia/commons/thumb/f/f4/Elasticsearch_logo.svg/1024px-Elasticsearch_logo.svg.png;" vertex="1" parent="1">
          <mxGeometry x="544.6399999999999" y="86.28" width="130.72" height="28.72" as="geometry" />
        </mxCell>
        <mxCell id="MdCT3wbdab676pveuY5y-4" value="" style="sketch=0;outlineConnect=0;fontColor=#232F3E;gradientColor=none;fillColor=#000000;strokeColor=none;dashed=0;verticalLabelPosition=bottom;verticalAlign=top;align=center;html=1;fontSize=12;fontStyle=0;aspect=fixed;pointerEvents=1;shape=mxgraph.aws4.iot_analytics_pipeline;" vertex="1" parent="1">
          <mxGeometry x="386" y="131.28" width="78" height="42" as="geometry" />
        </mxCell>
        <mxCell id="MdCT3wbdab676pveuY5y-14" value="" style="edgeStyle=orthogonalEdgeStyle;rounded=0;orthogonalLoop=1;jettySize=auto;html=1;entryX=0.025;entryY=0.587;entryDx=0;entryDy=0;entryPerimeter=0;" edge="1" parent="1" source="MdCT3wbdab676pveuY5y-5" target="MdCT3wbdab676pveuY5y-2">
          <mxGeometry relative="1" as="geometry" />
        </mxCell>
        <mxCell id="MdCT3wbdab676pveuY5y-5" value="" style="sketch=0;aspect=fixed;pointerEvents=1;shadow=0;dashed=0;html=1;strokeColor=none;labelPosition=center;verticalLabelPosition=bottom;verticalAlign=top;align=center;fillColor=#000000;shape=mxgraph.azure.computer" vertex="1" parent="1">
          <mxGeometry x="40" y="41" width="121.11" height="109" as="geometry" />
        </mxCell>
        <mxCell id="MdCT3wbdab676pveuY5y-7" value="" style="html=1;verticalLabelPosition=bottom;align=center;labelBackgroundColor=#ffffff;verticalAlign=top;strokeWidth=2;strokeColor=#000000;shadow=0;dashed=0;shape=mxgraph.ios7.icons.messages;" vertex="1" parent="1">
          <mxGeometry x="250" y="115" width="90" height="70" as="geometry" />
        </mxCell>
        <mxCell id="MdCT3wbdab676pveuY5y-8" value="&lt;h1 style=&quot;margin-top: 0px;&quot;&gt;&lt;font style=&quot;font-size: 20px;&quot;&gt;OpenAI Chat Generator&lt;/font&gt;&lt;/h1&gt;" style="text;html=1;whiteSpace=wrap;overflow=hidden;rounded=0;" vertex="1" parent="1">
          <mxGeometry x="217" y="185.00000000000003" width="156" height="80" as="geometry" />
        </mxCell>
        <mxCell id="MdCT3wbdab676pveuY5y-9" value="&lt;h1 style=&quot;margin-top: 0px;&quot;&gt;&lt;font style=&quot;font-size: 20px;&quot;&gt;RAG pipeline used as a tool&lt;/font&gt;&lt;/h1&gt;" style="text;html=1;whiteSpace=wrap;overflow=hidden;rounded=0;" vertex="1" parent="1">
          <mxGeometry x="366" y="185.00000000000003" width="150" height="90" as="geometry" />
        </mxCell>
        <mxCell id="MdCT3wbdab676pveuY5y-12" value="&lt;h1 style=&quot;margin-top: 0px;&quot;&gt;User Interface&lt;/h1&gt;" style="text;html=1;whiteSpace=wrap;overflow=hidden;rounded=0;" vertex="1" parent="1">
          <mxGeometry x="18.31" y="161" width="164.5" height="50" as="geometry" />
        </mxCell>
        <mxCell id="MdCT3wbdab676pveuY5y-13" value="&lt;h1 style=&quot;margin-top: 0px;&quot;&gt;Vector Database&lt;/h1&gt;" style="text;html=1;whiteSpace=wrap;overflow=hidden;rounded=0;" vertex="1" parent="1">
          <mxGeometry x="521" y="161" width="190" height="50" as="geometry" />
        </mxCell>
        <mxCell id="MdCT3wbdab676pveuY5y-16" value="" style="endArrow=classic;html=1;rounded=0;entryX=0.991;entryY=0.626;entryDx=0;entryDy=0;entryPerimeter=0;exitX=0;exitY=0;exitDx=0;exitDy=90;exitPerimeter=0;" edge="1" parent="1" source="MdCT3wbdab676pveuY5y-2" target="MdCT3wbdab676pveuY5y-5">
          <mxGeometry width="50" height="50" relative="1" as="geometry">
            <mxPoint x="400" y="291.28" as="sourcePoint" />
            <mxPoint x="450" y="241.28" as="targetPoint" />
          </mxGeometry>
        </mxCell>
      </root>
    </mxGraphModel>
  </diagram>
</mxfile>
